<svg xmlns="http://www.w3.org/2000/svg" viewBox="-94.4653 334.0653 220 224" width="220" height="224">
    <defs>
        <clipPath id="clip0_193_100">
            <rect width="220.058" height="221.844" fill="white" transform="translate(0 20.4814)"></rect>
        </clipPath>
    </defs>
    <g clip-path="url(#clip0_193_100)" transform="matrix(1, 0, 0, 1, -94.354417, 314.486363)">
        <path
            d="M204.95 151.532L149.32 182.635C130.137 193.357 111.875 167.244 128.53 152.907C142.523 140.865 142.512 119.188 128.519 107.146C111.853 92.8197 130.104 66.6956 149.287 77.4069L204.928 108.476C221.76 117.879 221.771 142.107 204.939 151.521L204.95 151.532Z"
            fill="#3C45B9" stroke="black" stroke-width="4.98973"></path>
        <path
            d="M161.216 213.783L99.8868 196.441C78.7415 190.465 84.2856 159.085 106.207 160.726C124.625 162.101 139.938 146.777 138.552 128.359C136.9 106.437 168.279 100.871 174.267 122.016L191.642 183.335C196.898 201.886 179.778 219.028 161.216 213.772V213.783Z"
            fill="#3C45B9" stroke="black" stroke-width="4.98973"></path>
        <path
            d="M89.1126 227.209L58.0099 171.579C47.2876 152.396 73.4005 134.134 87.7376 150.788C99.7795 164.782 121.457 164.771 133.499 150.777C147.825 134.111 173.949 152.363 163.238 171.546L132.168 227.187C122.765 244.019 98.5376 244.03 89.1236 227.198L89.1126 227.209Z"
            fill="#3C45B9" stroke="black" stroke-width="4.98973"></path>
        <path
            d="M28.3338 183.358L45.6758 122.028C51.6524 100.883 83.0322 106.427 81.3912 128.349C80.0162 146.766 95.3402 162.079 113.758 160.693C135.679 159.041 141.246 190.421 120.1 196.409L58.7822 213.784C40.2315 219.04 23.089 201.919 28.3448 183.358H28.3338Z"
            fill="#3C45B9" stroke="black" stroke-width="4.98973"></path>
        <path
            d="M15.1152 108.533L70.7451 77.4301C89.9278 66.7077 108.19 92.8207 91.5356 107.158C77.5422 119.2 77.5533 140.877 91.5467 152.919C108.212 167.245 89.9611 193.369 70.7784 182.658L15.1374 151.589C-1.69465 142.186 -1.70573 117.958 15.1263 108.544L15.1152 108.533Z"
            fill="#3C45B9" stroke="black" stroke-width="4.98973"></path>
        <path
            d="M58.7564 47.7673L120.086 65.1095C141.231 71.0861 135.687 102.466 113.765 100.825C95.3477 99.4499 80.0348 114.774 81.4209 133.192C83.073 155.113 51.6932 160.68 45.7055 139.534L28.3301 78.2158C23.0743 59.6651 40.1946 42.5226 58.7564 47.7784V47.7673Z"
            fill="#3C45B9" stroke="black" stroke-width="4.98973"></path>
        <path
            d="M132.122 35.5908L163.225 91.2208C173.947 110.404 147.834 128.666 133.497 112.011C121.455 98.018 99.7774 98.0291 87.7356 112.023C73.4095 128.688 47.2855 110.437 57.9968 91.2541L89.0662 35.613C98.469 18.7809 122.697 18.7698 132.111 35.6019L132.122 35.5908Z"
            fill="#3C45B9" stroke="black" stroke-width="4.98973"></path>
        <path
            d="M191.645 78.2057L174.303 139.535C168.326 160.681 136.946 155.136 138.587 133.215C139.962 114.797 124.638 99.4841 106.22 100.87C84.2989 102.522 78.7326 71.1424 99.878 65.1547L161.196 47.7794C179.747 42.5235 196.889 59.6439 191.634 78.2057H191.645Z"
            fill="#FCBF01" stroke="black" stroke-width="4.98973"></path>
    </g>
</svg>