<svg width="237" height="259" viewBox="0 0 237 259" fill="none" xmlns="http://www.w3.org/2000/svg">
    <path
        d="M235.98 120.98C235.98 123.07 235.95 124.97 235.98 126.87C236.03 129.17 236.55 131.54 236.15 133.75C235.35 138.19 236.89 142.5 236.39 146.9C235.91 151.13 235.53 155.37 235.22 159.61C234.89 164.24 233.03 168.35 231.24 172.52C230.04 175.31 229.01 178.18 227.88 181C225.64 186.61 222.84 191.93 218.89 196.53C213.76 202.5 208.59 208.45 203.26 214.25C200.92 216.8 198.14 218.94 195.57 221.28C191.99 224.52 188.46 227.82 184.83 231C183.21 232.41 181.18 233.38 179.71 234.91C177.1 237.61 173.86 239.33 170.71 241.13C167.52 242.95 163.97 244.13 160.58 245.59C160.15 245.78 159.71 245.93 159.3 246.16C155.4 248.29 151.54 250.49 147.6 252.54C145.95 253.4 144.19 254.14 142.39 254.59C138.39 255.59 134.29 256.18 130.32 257.28C126.89 258.24 123.51 258.35 120.02 258.08C118.56 257.97 117.05 258.67 115.59 258.59C112.46 258.42 109.34 258.05 106.23 257.65C102.7 257.19 99.16 256.74 95.68 256.02C93.35 255.54 91.1399 254.56 88.8499 253.88C87.2899 253.42 85.66 253.21 84.13 252.69C83.01 252.31 81.98 251.64 80.95 251.04C80.16 250.57 79.4899 249.88 78.6599 249.5C76.6099 248.57 74.51 247.76 72.43 246.92C68.53 245.35 64.56 243.94 60.76 242.17C58.35 241.05 56.18 239.43 53.92 238.02C50.98 236.19 47.98 234.43 45.12 232.48C43.35 231.27 41.79 229.75 40.12 228.4C37.94 226.63 35.67 224.96 33.55 223.12C29.82 219.89 26.5299 216.24 23.7299 212.16C23.1999 211.39 22.4399 210.77 21.9799 209.96C20.6299 207.56 19.38 205.11 18.09 202.67C17.39 201.35 16.85 199.91 15.96 198.74C14.25 196.5 13.26 193.99 12.32 191.38C11.81 189.96 10.73 188.75 9.89999 187.45C8.38999 185.09 6.71996 182.82 5.42996 180.34C4.66996 178.89 4.52998 177.13 4.06998 175.52C3.78998 174.54 3.33996 173.59 3.14996 172.6C1.96996 166.7 1.30998 160.72 1.53998 154.72C1.70998 150.36 1.17996 146.1 0.619965 141.81C0.309965 139.43 0.419966 136.99 0.339966 134.58C0.339966 134.49 0.369965 134.39 0.369965 134.3C0.569965 130.16 0.69998 126.01 0.97998 121.88C1.16998 119.13 1.56998 116.4 1.88998 113.66C2.12998 111.53 2.38996 109.4 2.64996 107.27C2.71996 106.67 2.73998 106.03 2.94998 105.47C3.69998 103.41 3.80998 101.32 3.84998 99.14C3.88998 97.03 4.61996 94.93 5.01996 92.82C5.29996 91.36 5.50997 89.9 5.80997 88.44C5.97997 87.65 6.22998 86.87 6.50998 86.1C7.36998 83.75 8.90999 81.74 9.20999 79.06C9.51999 76.26 10.48 73.51 11.36 70.81C12.22 68.17 13.12 65.49 14.42 63.05C16.29 59.51 18.47 56.12 20.64 52.74C21.97 50.67 23.55 48.75 24.99 46.75C26.22 45.05 27.6 43.58 29.67 42.87C31.59 42.21 33.02 41.05 34.12 39.23C35.19 37.46 36.54 35.76 38.74 35.1C39.08 35 39.4 34.58 39.59 34.23C40.71 32.15 42.28 30.55 44.33 29.38C44.96 29.02 45.42 28.37 45.96 27.86C46.32 27.51 46.65 27.1 47.06 26.82C49.41 25.22 51.7499 23.6 54.1599 22.08C56.8599 20.37 59.55 18.6 62.4 17.17C64.98 15.87 67.79 15.06 70.45 13.91C71.59 13.42 72.72 12.74 73.61 11.9C74.99 10.59 76.42 9.68999 78.38 9.53999C79.36 9.46999 80.29 8.82999 81.26 8.50999C83.87 7.63999 86.52 6.88 89.09 5.92C92.49 4.65 95.83 3.23 99.21 1.91C99.76 1.69 100.38 1.58 100.97 1.53C104.88 1.22 108.78 0.789992 112.7 0.679992C116.48 0.579992 120.27 0.830003 124.05 0.910003C127.14 0.980003 130.24 0.889995 133.31 1.11999C135.48 1.28999 137.64 1.81 139.77 2.3C143.5 3.16 147.22 4.05001 150.91 5.07001C152.98 5.64001 154.97 6.49 157.01 7.2C159.92 8.21 162.83 9.21001 165.74 10.21C166.01 10.3 166.28 10.38 166.53 10.5C173.21 13.56 179.88 16.61 186.55 19.68C188.72 20.68 190.92 21.64 193 22.8C194.24 23.49 195.29 24.54 196.39 25.46C198 26.81 199.61 28.17 201.18 29.57C201.95 30.25 202.63 31.03 203.37 31.75C206.65 34.97 209.87 38.24 213.22 41.38C217.58 45.46 220.84 50.27 223.19 55.73C223.8 57.15 224.38 58.6 225.06 59.99C227.71 65.44 228.9 71.32 230.25 77.17C230.97 80.31 231.69 83.43 233.07 86.42C233.97 88.36 234.2 90.66 234.46 92.83C234.85 96.04 235.15 99.28 235.21 102.5C235.29 106.81 235.12 111.13 235.04 115.44C235.02 116.76 235.02 118.07 234.9 119.38C234.8 120.43 234.91 121.19 236 121.02L235.98 120.98ZM106.2 6.58C106.18 6.44 106.15 6.28999 106.13 6.14999C103.99 6.51999 101.81 6.75999 99.7199 7.28999C97.5999 7.82999 95.6 8.98 93.46 9.33C88.05 10.2 82.99 12.19 77.84 13.88C77.45 14.01 77.06 14.17 76.69 14.37C74.02 15.83 71.38 17.35 68.69 18.77C66.5 19.93 64.08 20.74 62.06 22.13C58.05 24.87 54.15 27.8 50.37 30.86C47.27 33.36 44.46 36.21 41.43 38.81C38.37 41.43 36.19 45 32.56 46.99C32.37 47.1 32.22 47.32 32.09 47.51C30.62 49.75 29.0999 51.95 27.7199 54.23C23.8399 60.65 20.0299 67.1 16.1599 73.53C14.0699 77 12.97 80.82 12.38 84.76C11.67 89.48 11.25 94.25 10.69 98.99C10.47 100.79 10.26 102.6 9.92996 104.39C9.61996 106.11 8.77995 107.83 8.85995 109.52C9.14995 116.22 9.57994 122.91 10.2199 129.58C10.7899 135.57 12.07 141.43 14.43 147C17.6 154.51 20.7799 162.02 23.9699 169.51C24.1999 170.06 24.55 170.58 24.94 171.03C27.76 174.22 30.64 177.36 33.45 180.56C37.13 184.75 40.62 189.11 44.46 193.15C48.62 197.52 53.65 200.84 58.81 203.93C61.46 205.52 64.35 206.75 66.82 208.57C70.23 211.07 73.99 212.56 77.99 213.67C81.27 214.58 84.52 215.58 87.77 216.59C90.33 217.38 92.8699 218.26 95.42 219.07C95.77 219.18 96.16 219.18 96.5399 219.21C98.5999 219.37 100.6 219.29 102.66 218.75C104.19 218.34 105.91 218.58 107.54 218.63C110.24 218.72 112.94 218.88 115.65 219.03C117.26 219.12 118.87 219.24 120.47 219.36C121.11 219.41 121.77 219.65 122.38 219.56C124.69 219.21 126.98 218.77 129.27 218.32C129.95 218.19 130.59 217.86 131.26 217.67C132.6 217.3 133.94 216.93 135.29 216.61C136.78 216.25 138.29 215.94 139.79 215.62C141.1 215.34 142.42 215.1 143.73 214.82C144.85 214.58 146 214.4 147.08 214.04C149.57 213.19 152.26 212.88 154.56 211.47C154.67 211.4 154.84 211.44 154.97 211.39C158.27 210.15 161.59 208.93 164.87 207.63C165.9 207.22 166.8 206.43 167.84 206.07C173.61 204.11 178.57 200.74 183.32 197.09C186.65 194.53 189.72 191.65 192.85 188.85C194.31 187.54 195.72 186.16 197 184.68C200.32 180.82 203.57 176.88 206.82 172.96C207.77 171.81 208.91 170.71 209.48 169.38C209.94 168.31 210.6 167.74 211.49 167.22C211.8 167.04 212.21 166.91 212.38 166.63C214.12 163.91 215.81 161.16 217.54 158.43C219.98 154.58 220.81 150.1 222.49 145.96C222.7 145.45 222.94 144.9 222.96 144.36C223.03 141.56 224.12 139.03 225.45 136.72C226.52 134.86 226.91 132.93 227.3 130.92C227.66 129.05 228.28 127.23 228.54 125.36C228.76 123.8 229.28 122.48 230.21 121.21C230.51 120.8 230.22 119.97 230.22 119.33C230.22 118.95 230.12 118.48 230.29 118.19C231.86 115.55 231.16 112.69 230.96 109.96C230.79 107.73 230.19 105.55 230.8 103.28C230.95 102.72 230.8 102.07 230.72 101.47C230.32 98.51 229.94 95.54 229.45 92.59C229.06 90.26 228.66 87.91 227.99 85.65C227.43 83.78 226.44 82.05 225.69 80.24C225.37 79.47 225.24 78.63 224.97 77.84C224.07 75.24 222.93 72.71 222.26 70.05C221.21 65.89 219.84 61.89 217.57 58.23C217.3 57.8 217.16 57.29 216.93 56.83C215.35 53.67 214.35 50.16 211.5 47.76C211.15 47.46 210.94 47.01 210.62 46.67C209.17 45.1 207.81 43.42 206.21 42.02C202.78 39.01 199.23 36.16 195.74 33.22C195.39 32.93 195.2 32.47 194.89 32.12C194.37 31.52 193.87 30.87 193.26 30.37C191.64 29.04 189.72 27.99 188.37 26.44C187.29 25.21 186.22 24.35 184.7 23.83C182.17 22.98 179.67 22.04 177.2 21.03C173.99 19.73 170.82 18.33 167.64 16.97C164.34 15.56 161.07 14.08 157.75 12.73C155.75 11.92 153.71 11.19 151.64 10.61C149.08 9.89 146.47 9.32 143.87 8.78C139.85 7.94 135.94 6.51 131.75 6.5C128.71 6.5 125.67 6.38999 122.63 6.28999C120.52 6.20999 118.42 5.90001 116.32 5.96001C112.94 6.05001 109.57 6.36 106.2 6.58ZM124.61 250.56C124.65 249.71 124.68 248.98 124.71 248.25C124.87 244.53 125.69 240.8 124.48 237.09C124.33 236.62 124.42 236.07 124.42 235.56C124.42 234.21 124.42 232.86 124.45 231.51C124.49 229.83 124.61 228.15 124.59 226.47C124.59 226.06 124.2 225.32 123.94 225.3C122.14 225.15 120.33 225.12 118.52 225.15C118.29 225.15 117.9 225.69 117.86 226.01C117.66 227.78 117.55 229.55 117.41 231.33C117.13 234.78 116.91 238.23 116.53 241.66C116.25 244.26 115.63 246.82 115.42 249.42C115.26 251.36 115.59 251.71 117.53 251.6C119.89 251.46 122.22 250.93 124.6 250.56H124.61ZM93.82 222.75C94 224.06 94.2 224.84 94.19 225.61C94.14 229.35 94.03 233.09 93.94 236.83C93.85 240.33 93.98 243.86 92.89 247.26C92.63 248.06 92.87 248.65 93.78 248.81C95.88 249.18 97.9799 249.54 100.16 249.92C100.46 248.39 101.07 246.84 101.02 245.3C100.86 240.28 101.17 235.3 101.87 230.33C102.1 228.69 102.24 227.04 102.4 225.66C99.51 224.68 96.83 223.77 93.82 222.75ZM105.12 251.21C106.42 251.34 107.66 251.56 108.91 251.57C111.98 251.6 112.6 250.96 112.63 247.94C112.63 247.47 112.57 247 112.61 246.53C112.84 243.7 113.12 240.87 113.33 238.04C113.65 233.77 113.92 229.5 114.23 225.1C112.12 224.93 110.31 224.72 108.49 224.64C106.6 224.55 106.35 225.02 106.71 226.88C106.99 228.33 107.2 229.85 107.07 231.31C106.5 237.87 105.79 244.41 105.11 251.2L105.12 251.21ZM90.02 248.05C90.15 246.78 90.2999 245.96 90.2899 245.14C90.2799 243.47 90.09 241.79 90.13 240.12C90.22 236.38 90.38 232.65 90.55 228.92C90.63 227.12 90.83 225.33 90.92 223.53C90.9399 223.08 90.88 222.3 90.65 222.21C88.84 221.51 86.98 220.94 85.13 220.33C84.88 221.59 84.5099 222.67 84.4699 223.77C84.1799 231.02 83.21 238.24 83.64 245.51C83.66 245.92 84.11 246.54 84.49 246.65C86.2 247.17 87.96 247.54 90.03 248.04L90.02 248.05ZM147.8 221.44C146.92 221.61 146.37 221.67 145.85 221.83C144.42 222.27 143.02 222.86 141.57 223.16C140.64 223.36 140.49 223.7 140.54 224.57C140.63 226.15 140.59 227.75 140.55 229.33C140.52 230.5 140.36 231.66 140.34 232.82C140.29 235.25 140.42 237.69 140.24 240.1C140.02 242.97 139.55 245.81 139.14 249.03C141.78 248.04 144.08 247.18 146.37 246.31C146.49 246.27 146.63 246.12 146.64 246.01C146.89 244.36 147.36 242.69 147.28 241.05C147.16 238.5 146.65 235.96 146.35 233.41C146.28 232.82 146.3 232.2 146.38 231.61C146.82 228.33 147.29 225.05 147.8 221.44ZM158.89 219.81C156.68 220.16 154.7 220.47 152.71 220.78C151.82 220.92 151.37 221.23 151.41 222.32C151.59 226.81 151.66 231.3 151.72 235.79C151.76 238.58 151.72 241.37 151.72 244.01C154.21 243.36 156.56 242.76 158.89 242.08C159.04 242.04 159.17 241.35 159.06 241.05C158.41 239.25 158.06 237.48 158.84 235.6C159.05 235.09 158.91 234.4 158.84 233.8C158.7 232.5 158.33 231.2 158.36 229.91C158.43 226.61 158.67 223.32 158.86 219.82L158.89 219.81ZM181.91 207.55C179.82 208.95 177.86 210.39 175.78 211.61C174.66 212.27 174.39 213.01 174.44 214.23C174.62 218.11 174.77 222 174.73 225.88C174.71 228.19 174.3 230.5 174.01 233.27C175.09 232.46 175.85 231.89 176.61 231.31C176.98 231.03 177.32 230.56 177.72 230.5C179.92 230.18 180.77 228.15 182.28 226.98C182.44 226.86 182.4 226.4 182.35 226.11C182.22 225.29 181.92 224.48 181.91 223.66C181.87 218.38 181.89 213.09 181.89 207.55H181.91ZM163.17 239.88C163.93 239.64 164.63 239.53 165.2 239.21C166.67 238.4 168.1 237.52 169.52 236.63C169.85 236.42 170.33 236.07 170.32 235.79C170.29 234.79 170.1 233.79 169.92 232.8C169.78 232.02 169.37 231.25 169.41 230.49C169.57 227.32 169.86 224.15 170.1 220.98C170.25 218.96 170.38 216.95 170.53 214.85C168.23 215.92 166.2 216.96 164.1 217.81C163.24 218.16 163 218.54 163.01 219.43C163.1 224.11 163.13 228.79 163.16 233.47C163.18 235.52 163.16 237.57 163.16 239.87L163.17 239.88ZM81.25 246.13C81.36 245.21 81.52 244.58 81.4799 243.96C81.38 242.28 81.08 240.61 81.07 238.94C81.05 236.28 81.25 233.62 81.26 230.96C81.26 227.37 81.2 223.77 81.09 220.18C81.08 219.78 80.68 219.14 80.34 219.05C79.1 218.73 77.81 218.6 76.33 218.37C76.2 220.59 76.0799 222.54 75.9699 224.49C75.6399 230.24 75.28 235.99 75.01 241.75C74.98 242.34 75.2799 243.26 75.7199 243.51C77.3799 244.45 79.16 245.17 81.25 246.14V246.13ZM185.89 223.87L186.28 224C186.48 223.83 186.74 223.69 186.89 223.47C188.22 221.46 189.83 219.82 191.92 218.5C192.99 217.82 194.51 216.75 194.01 214.92C193.61 213.47 192.64 212.1 193.66 210.54C193.74 210.42 193.62 210.17 193.63 209.99C193.73 207.37 193.84 204.75 193.95 202.13C194.01 200.77 194.09 199.4 194.16 198.04C194.03 198 193.89 197.95 193.76 197.91C193.42 198.19 193.06 198.47 192.73 198.76C190.91 200.38 189.12 202.04 187.24 203.6C186.58 204.15 186.39 204.67 186.39 205.5C186.41 208.78 186.37 212.06 186.28 215.34C186.2 218.18 186.03 221.02 185.89 223.87ZM137.01 224.16C134.86 224.66 133.02 225.26 131.13 225.48C129.65 225.65 129.43 226.25 129.5 227.58C129.69 231.56 129.77 235.55 129.82 239.53C129.86 242.67 129.76 245.82 129.78 248.97C129.78 249.33 130.17 249.99 130.37 249.99C131.79 249.97 133.21 249.81 134.24 249.72C134.37 248.37 134.47 247.32 134.57 246.27C134.61 245.8 134.66 245.34 134.7 244.87C134.88 242.35 134.99 239.82 135.24 237.31C135.41 235.65 135.81 234.02 136.02 232.36C136.15 231.39 136.05 230.4 136.18 229.43C136.4 227.74 136.71 226.05 137.02 224.17L137.01 224.16ZM56.77 234.17C56.88 234.07 56.99 233.98 57.11 233.88C57.01 232.82 56.88 231.75 56.83 230.69C56.74 228.78 56.57 226.86 56.67 224.96C56.95 220.02 57.36 215.09 57.71 210.16C57.73 209.9 57.68 209.54 57.52 209.36C56.17 207.88 54.67 206.62 52.46 205.83C52.3 207.86 52.07 209.66 52.02 211.47C51.95 214.09 52.1 216.71 52 219.32C51.88 222.53 51.56 225.73 51.43 228.94C51.4 229.63 51.59 230.61 52.05 230.98C53.52 232.16 55.18 233.12 56.76 234.17H56.77ZM49.62 229.52C49.62 228.96 49.64 228.74 49.62 228.52C49.31 226.11 48.75 223.71 48.71 221.31C48.62 216.18 48.81 211.04 48.86 205.9C48.88 203.36 47.44 201.33 44.93 200.33C44.75 203.25 44.52 206.14 44.4 209.02C44.23 213.52 44.04 218.02 44.07 222.52C44.07 223.78 44.65 225.15 45.31 226.27C45.8 227.09 46.84 227.59 47.65 228.21C48.22 228.63 48.83 229 49.62 229.52ZM23.27 176.74C23.08 177.21 22.99 177.33 22.99 177.45C22.99 180.31 23 183.16 23.01 186.02C23.01 187.74 23.08 189.46 23.03 191.18C22.95 193.84 22.69 196.49 22.69 199.15C22.69 202.68 24.69 205.31 27 207.8C27.15 206.73 27.14 205.68 27.15 204.63C27.19 200.71 27.5699 196.81 26.9699 192.86C26.5899 190.38 26.88 187.75 27.2 185.23C27.44 183.38 27.88 181.67 26.05 180.39C25.94 180.31 25.9 180.16 25.81 180.04C25.02 179.01 24.22 177.97 23.26 176.73L23.27 176.74ZM68.42 215.71C68.5099 216.91 68.67 217.74 68.61 218.57C68.42 221.42 68.1699 224.27 67.9099 227.11C67.5799 230.83 67.24 234.54 66.87 238.26C66.79 239.06 66.91 239.63 67.8 239.84C68.25 239.95 68.69 240.14 69.12 240.33C70.73 241.01 71.68 240.47 72 238.68C72.05 238.41 72.02 238.12 72.0399 237.84C72.2999 233.88 72.56 229.91 72.8 225.95C72.82 225.63 72.78 225.3 72.75 224.98C72.6 223.15 71.83 221.34 72.75 219.47C72.98 218.99 73.01 217.93 72.75 217.78C71.43 217 69.9899 216.43 68.4099 215.71H68.42ZM210.35 180.25C210.22 180.19 210.08 180.13 209.95 180.06C208.62 181.74 207.19 183.35 205.99 185.12C205.39 186.01 204.95 187.14 204.85 188.21C204.7 189.83 204.91 191.48 204.98 193.12C205.13 196.3 205.28 199.47 205.45 202.65C205.47 202.99 205.58 203.33 205.68 203.77C208.67 202.69 209.46 200 210.78 197.74C211.49 196.52 210.92 195.49 210.51 194.41C210.39 194.11 210.28 193.78 210.27 193.46C210.13 190.28 209.96 187.1 209.92 183.92C209.9 182.7 210.2 181.47 210.35 180.24V180.25ZM61.27 211.48C61.17 212.18 61.07 212.78 61 213.38C60.78 215.33 60.63 217.29 60.34 219.23C59.6 224.05 58.8299 228.86 59.0399 233.76C59.1299 235.86 60.5699 237.33 62.5999 237.51C63.7899 229.47 62.2799 221.19 65.0399 213.33C63.7099 212.68 62.55 212.1 61.28 211.48H61.27ZM5.70996 126.58C5.52996 126.58 5.35996 126.58 5.17996 126.57C5.17996 129.28 5.06998 131.99 5.19998 134.7C5.47998 140.41 5.81 146.12 6.28 151.82C6.84 158.59 7.53995 165.35 8.22995 172.1C8.32995 173.09 8.70999 174.05 8.95999 175.03C9.10999 174.99 9.25994 174.96 9.40994 174.92C9.40994 174.74 9.40994 174.57 9.40994 174.39C9.19994 170.96 8.94995 167.53 8.78995 164.1C8.71995 162.61 8.79997 161.11 8.80997 159.61C8.81997 157.42 8.83999 155.24 8.82999 153.05C8.82999 152.54 8.73995 152.03 8.72995 151.53C8.72995 150.81 8.72999 150.09 8.76999 149.37C8.78999 148.82 8.83994 148.27 8.90994 147.72C8.96994 147.28 9.09995 146.85 9.16995 146.41C9.24995 145.92 9.42997 145.39 9.30997 144.94C8.99997 143.72 8.39997 142.57 8.18997 141.34C7.39997 136.84 6.71996 132.33 5.98996 127.82C5.91996 127.41 5.79996 127.01 5.70996 126.61V126.58ZM41.2 222.63C41.2 220.23 41.23 217.89 41.2 215.55C41.16 213.27 40.95 210.99 41.01 208.71C41.07 206.19 41.17 203.64 41.57 201.15C42.08 198.01 40.76 195.86 38.31 193.9C38.31 194.67 38.3 195.26 38.31 195.85C38.36 197.86 38.61 199.89 38.44 201.87C38.09 205.79 37.41 209.68 37.05 213.59C36.71 217.31 37.49 220.65 41.21 222.62L41.2 222.63ZM196.6 214.39C196.83 214.3 197 214.29 197.07 214.2C198.84 211.97 200.6 209.74 202.34 207.48C202.55 207.2 202.76 206.78 202.72 206.47C202.53 205.06 202.25 203.67 201.99 202.27C201.9 201.77 201.68 201.28 201.64 200.78C201.43 198.47 201.25 196.15 201.09 193.84C201.04 193.14 201.09 192.43 201.09 191.33C198.72 193.76 196.38 195.65 197.4 199.14C197.59 199.8 197.54 200.54 197.5 201.24C197.23 205.58 196.92 209.91 196.62 214.39H196.6ZM218.77 168.89C218.6 168.83 218.44 168.76 218.27 168.7C217.23 170.29 216.3 171.97 215.12 173.45C214.24 174.55 214.04 175.58 214.24 176.94C214.74 180.45 215.19 183.96 214.41 187.53C214.11 188.92 214.36 190.44 214.36 192.13C215.21 190.71 215.96 189.49 216.66 188.25C217.86 186.15 218.87 183.91 220.26 181.96C221.06 180.84 220.91 180.06 220.22 179.24C218.15 176.79 219.03 173.82 218.67 171.07C218.58 170.36 218.73 169.63 218.76 168.9L218.77 168.89ZM12.49 155.17C12.35 155.2 12.2 155.22 12.06 155.25C12.01 155.94 11.89 156.63 11.92 157.31C12.07 160.58 12.28 163.84 12.42 167.11C12.53 169.64 12.6199 172.17 12.6599 174.7C12.6899 176.47 12.65 178.23 12.56 180C12.45 182.03 11.97 184.06 13.63 185.81C14.22 186.43 14.5 187.35 14.96 188.11C15.14 188.4 15.42 188.63 15.96 189.22C15.96 188.15 16.05 187.5 15.95 186.88C14.93 180.87 15.13 174.81 15.02 168.76C14.98 166.59 15.96 164.46 15 162.23C14.01 159.94 13.3099 157.53 12.4799 155.17H12.49ZM32.15 186.95C31.89 187.06 31.64 187.17 31.38 187.27C31.38 190.11 31.36 192.95 31.38 195.79C31.4 197.7 31.61 199.62 31.55 201.53C31.44 205.08 31.16 208.63 31 212.18C30.93 213.67 31.78 214.77 33.44 215.46C33.48 214.82 33.52 214.24 33.55 213.66C33.76 209.84 33.97 206.02 34.18 202.2C34.28 200.44 34.3999 198.67 34.4699 196.91C34.5499 194.82 34.6 192.73 34.62 190.64C34.62 190.24 34.54 189.76 34.31 189.46C33.64 188.59 32.87 187.78 32.14 186.95H32.15ZM224.47 156.94C224.26 156.94 224.04 156.94 223.83 156.93C223.4 158.38 222.6 159.84 222.61 161.28C222.63 164.33 223.07 167.38 223.38 170.43C223.41 170.74 223.79 171.01 224.05 171.37C224.4 170.34 224.5 169.58 224.88 169.01C225.99 167.35 226.44 165.63 225.74 163.72C224.94 161.54 223.39 159.55 224.47 156.94ZM227.51 155.83C228.52 152.3 229.24 148.78 228.48 145.07C227.71 146.39 226.69 147.77 226.65 149.18C226.59 151.39 227.19 153.61 227.5 155.83H227.51ZM19.26 174.11C18.21 175.54 17.92 178.37 18.51 179.18C18.76 177.48 19.01 175.79 19.26 174.11Z"
        fill="black" />
    <path
        d="M106.21 6.58004C109.58 6.36004 112.95 6.05005 116.33 5.96005C118.43 5.90005 120.54 6.21003 122.64 6.29003C125.68 6.40003 128.72 6.50004 131.76 6.50004C135.95 6.50004 139.86 7.93004 143.88 8.78004C146.48 9.33004 149.09 9.90004 151.65 10.61C153.72 11.19 155.77 11.92 157.76 12.73C161.08 14.08 164.36 15.56 167.65 16.97C170.83 18.33 174 19.73 177.21 21.03C179.68 22.03 182.18 22.97 184.71 23.83C186.23 24.34 187.31 25.2 188.38 26.44C189.73 27.99 191.64 29.04 193.27 30.37C193.88 30.87 194.37 31.52 194.9 32.12C195.2 32.47 195.4 32.93 195.75 33.22C199.24 36.16 202.79 39.02 206.22 42.02C207.82 43.42 209.18 45.1 210.63 46.67C210.95 47.01 211.16 47.47 211.51 47.76C214.36 50.16 215.37 53.67 216.94 56.83C217.17 57.29 217.31 57.79 217.58 58.23C219.85 61.89 221.22 65.89 222.27 70.05C222.94 72.71 224.07 75.24 224.98 77.84C225.25 78.63 225.38 79.47 225.7 80.24C226.44 82.05 227.44 83.78 228 85.65C228.68 87.91 229.07 90.26 229.46 92.59C229.95 95.54 230.33 98.51 230.73 101.47C230.81 102.07 230.96 102.72 230.81 103.28C230.2 105.54 230.81 107.72 230.97 109.96C231.17 112.69 231.88 115.56 230.3 118.19C230.13 118.48 230.23 118.95 230.23 119.33C230.23 119.97 230.52 120.8 230.22 121.21C229.3 122.48 228.77 123.79 228.55 125.36C228.29 127.24 227.67 129.06 227.31 130.92C226.92 132.93 226.53 134.86 225.46 136.72C224.13 139.04 223.03 141.56 222.97 144.36C222.96 144.9 222.71 145.44 222.5 145.96C220.82 150.1 219.99 154.59 217.55 158.43C215.82 161.16 214.13 163.91 212.39 166.63C212.21 166.9 211.81 167.04 211.5 167.22C210.61 167.73 209.95 168.31 209.49 169.38C208.92 170.71 207.78 171.81 206.83 172.96C203.58 176.88 200.33 180.81 197.01 184.68C195.74 186.16 194.32 187.54 192.86 188.85C189.73 191.65 186.65 194.54 183.33 197.09C178.58 200.74 173.62 204.11 167.85 206.07C166.8 206.43 165.91 207.22 164.88 207.63C161.6 208.93 158.28 210.14 154.98 211.39C154.85 211.44 154.68 211.4 154.57 211.47C152.27 212.89 149.58 213.19 147.09 214.04C146.01 214.41 144.86 214.59 143.74 214.82C142.43 215.1 141.11 215.34 139.8 215.62C138.3 215.94 136.8 216.25 135.3 216.61C133.95 216.93 132.61 217.29 131.27 217.67C130.6 217.86 129.96 218.19 129.28 218.32C126.99 218.77 124.7 219.21 122.39 219.56C121.78 219.65 121.12 219.41 120.48 219.36C118.87 219.24 117.27 219.12 115.66 219.03C112.96 218.88 110.26 218.72 107.55 218.63C105.92 218.58 104.2 218.34 102.67 218.75C100.61 219.29 98.61 219.37 96.55 219.21C96.18 219.18 95.79 219.18 95.43 219.07C92.87 218.25 90.34 217.38 87.7801 216.59C84.5301 215.58 81.28 214.58 78 213.67C74 212.56 70.24 211.07 66.83 208.57C64.36 206.75 61.46 205.52 58.82 203.93C53.67 200.83 48.63 197.52 44.47 193.15C40.63 189.12 37.14 184.75 33.46 180.56C30.65 177.36 27.77 174.22 24.95 171.03C24.56 170.58 24.21 170.06 23.98 169.51C20.79 162.01 17.61 154.5 14.44 147C12.09 141.42 10.8 135.56 10.23 129.58C9.6 122.91 9.17002 116.21 8.87002 109.52C8.80002 107.83 9.63002 106.12 9.94002 104.39C10.26 102.6 10.48 100.8 10.7 98.99C11.27 94.25 11.68 89.48 12.39 84.76C12.98 80.82 14.08 77 16.17 73.53C20.03 67.1 23.84 60.64 27.73 54.23C29.11 51.94 30.64 49.74 32.1 47.51C32.23 47.32 32.37 47.1 32.57 46.99C36.2 45 38.39 41.43 41.44 38.81C44.46 36.21 47.28 33.36 50.38 30.86C54.16 27.8 58.06 24.87 62.07 22.13C64.1 20.74 66.51 19.93 68.7 18.77C71.39 17.35 74.03 15.83 76.7 14.37C77.06 14.17 77.45 14.01 77.85 13.88C83.01 12.19 88.06 10.2 93.47 9.33004C95.61 8.99004 97.6 7.84003 99.73 7.29003C101.83 6.75003 104 6.51003 106.14 6.15003C106.16 6.29003 106.19 6.44004 106.21 6.58004ZM122.7 212.27C122.7 212.18 122.7 212.09 122.7 211.99C124.2 211.99 125.71 212 127.21 211.99C133.85 211.94 140.21 210.47 146.38 208.08C151.67 206.03 156.99 204.06 162.26 201.96C164.64 201.01 167.08 200.05 169.24 198.7C173.83 195.81 178.23 192.6 182.76 189.61C186.15 187.37 189.09 184.64 191.77 181.62C192.97 180.26 193.87 178.64 194.99 177.21C197.03 174.6 199.32 172.16 201.17 169.41C202.88 166.85 204.09 163.96 205.63 161.27C206.53 159.69 207.77 158.29 208.63 156.68C210.22 153.72 211.71 150.7 213.11 147.64C215.55 142.3 218.77 137.25 219.37 131.21C219.4 130.89 219.58 130.59 219.68 130.28C220.29 128.33 221.12 126.47 220.61 124.27C220.36 123.19 220.84 121.93 221 120.76C221.15 119.68 221.33 118.59 221.49 117.51C221.55 117.14 221.54 116.76 221.65 116.41C222.38 113.89 222.66 111.38 221.84 108.8C221.53 107.82 221.39 106.79 221.21 105.78C220.57 102.14 220.06 98.48 219.29 94.87C218.65 91.85 217.55 88.9201 216.95 85.8901C215.86 80.4401 214.61 75.1 211.86 70.17C210.38 67.52 209.49 64.56 208.2 61.79C205.76 56.58 202.73 51.71 198.87 47.43C196.72 45.04 194.38 42.77 191.85 40.78C187.99 37.74 183.91 35 179.92 32.14C178.47 31.1 177.03 30.07 175.57 29.03C174.58 28.33 173.66 27.47 172.58 26.97C169.82 25.71 166.95 24.7 164.18 23.45C160.73 21.89 157.34 20.21 153.95 18.55C151.14 17.18 148.15 16.56 145.05 16.23C141.98 15.9 138.93 15.38 135.87 14.96C133.63 14.65 131.38 14.38 129.14 14.06C127.98 13.9 126.73 13.9 125.69 13.44C123.07 12.27 120.39 13.55 117.78 12.98C117.74 12.98 117.69 13.01 117.65 13.01C115.49 13.25 113.33 13.58 111.16 13.67C110.22 13.71 109.27 13.07 108.31 13.03C103.32 12.81 98.57 14.05 93.91 15.67C91.75 16.42 89.59 17.19 87.44 17.97C85.43 18.7 83.43 19.45 81.43 20.22C80.57 20.55 79.72 20.93 78.87 21.3C77.12 22.05 75.11 22.48 73.68 23.63C70.31 26.32 66.89 28.9 63.19 31.11C61.7 32 60.24 32.95 58.9 34.04C58.27 34.55 58.06 35.57 57.44 36.12C55.45 37.88 53.33 39.47 51.32 41.21C48.33 43.81 45.47 46.55 42.42 49.07C40.74 50.46 39.18 51.86 38.2801 53.88C38.2201 54 38.09 54.09 38.02 54.21C35.77 57.47 33.33 60.61 31.34 64.02C29.97 66.38 29.25 69.11 28.2 71.65C27.01 74.55 25.7 77.4 24.58 80.33C23.5 83.15 22.79 86.12 21.55 88.86C20.23 91.79 19.55 94.79 19.35 97.94C19.08 102.32 18 106.64 18.48 111.07C18.59 112.14 18.75 113.2 18.79 114.27C18.9 117.41 18.85 120.55 19.08 123.68C19.44 128.54 19.7801 133.42 20.5301 138.23C21.0601 141.62 21.78 145.13 23.26 148.18C25.82 153.48 29.27 158.34 31.91 163.61C34.23 168.23 37.54 172.11 40.4 176.32C41.94 178.59 43.9 180.6 45.75 182.65C48.73 185.96 51.74 189.21 55.53 191.69C58.62 193.71 61.45 196.15 64.46 198.29C67.47 200.43 70.55 202.47 73.64 204.48C74.28 204.9 75.12 205.04 75.89 205.24C77.05 205.54 78.24 205.74 79.4 206.04C80.85 206.41 82.27 206.89 83.72 207.22C87.51 208.06 91.33 208.81 95.12 209.64C97.68 210.2 100.2 211.16 102.79 211.34C109.42 211.82 116.07 211.97 122.71 212.24L122.7 212.27Z"
        fill="#F6E82C" />
    <path
        d="M124.61 250.56C122.23 250.93 119.89 251.46 117.54 251.6C115.6 251.72 115.28 251.36 115.43 249.42C115.64 246.82 116.25 244.26 116.54 241.66C116.91 238.22 117.13 234.77 117.42 231.33C117.57 229.56 117.67 227.78 117.87 226.01C117.91 225.69 118.29 225.15 118.53 225.15C120.34 225.12 122.15 225.15 123.95 225.3C124.21 225.32 124.6 226.06 124.6 226.47C124.62 228.15 124.5 229.83 124.46 231.51C124.43 232.86 124.43 234.21 124.43 235.56C124.43 236.07 124.34 236.62 124.49 237.09C125.7 240.79 124.88 244.52 124.72 248.25C124.69 248.98 124.65 249.71 124.62 250.56H124.61Z"
        fill="#BD8229" />
    <path
        d="M93.83 222.75C96.83 223.77 99.52 224.68 102.41 225.66C102.26 227.04 102.11 228.69 101.88 230.33C101.18 235.3 100.88 240.28 101.03 245.3C101.08 246.83 100.47 248.39 100.17 249.92C97.98 249.54 95.88 249.18 93.79 248.81C92.89 248.65 92.65 248.06 92.9 247.26C93.99 243.86 93.86 240.33 93.95 236.83C94.04 233.09 94.15 229.35 94.2 225.61C94.21 224.84 94.01 224.06 93.83 222.75Z"
        fill="#BD8229" />
    <path
        d="M105.12 251.21C105.8 244.42 106.51 237.87 107.08 231.32C107.21 229.86 106.99 228.34 106.72 226.89C106.36 225.03 106.61 224.56 108.5 224.65C110.32 224.74 112.13 224.94 114.24 225.11C113.94 229.51 113.66 233.78 113.34 238.05C113.13 240.88 112.85 243.71 112.62 246.54C112.58 247.01 112.65 247.48 112.64 247.95C112.61 250.97 111.99 251.61 108.92 251.58C107.67 251.57 106.42 251.35 105.13 251.22L105.12 251.21Z"
        fill="#BD8229" />
    <path
        d="M90.03 248.04C87.96 247.54 86.2 247.17 84.49 246.65C84.12 246.54 83.67 245.92 83.64 245.51C83.21 238.24 84.18 231.02 84.47 223.77C84.51 222.67 84.88 221.59 85.13 220.33C86.98 220.94 88.84 221.51 90.65 222.21C90.88 222.3 90.94 223.08 90.92 223.53C90.83 225.33 90.63 227.12 90.55 228.92C90.38 232.65 90.22 236.39 90.13 240.12C90.09 241.79 90.28 243.46 90.29 245.14C90.29 245.96 90.14 246.78 90.02 248.05L90.03 248.04Z"
        fill="#BD8229" />
    <path
        d="M147.81 221.44C147.3 225.05 146.83 228.33 146.39 231.61C146.31 232.2 146.29 232.82 146.36 233.41C146.67 235.96 147.18 238.49 147.29 241.05C147.37 242.69 146.89 244.36 146.65 246.01C146.63 246.12 146.49 246.27 146.38 246.31C144.09 247.18 141.79 248.04 139.15 249.03C139.56 245.81 140.03 242.96 140.25 240.1C140.44 237.68 140.3 235.25 140.35 232.82C140.37 231.65 140.53 230.49 140.56 229.33C140.6 227.74 140.64 226.15 140.55 224.57C140.5 223.71 140.65 223.36 141.58 223.16C143.04 222.85 144.43 222.26 145.86 221.83C146.38 221.67 146.93 221.61 147.81 221.44Z"
        fill="#BD8229" />
    <path
        d="M158.9 219.81C158.72 223.31 158.47 226.6 158.4 229.9C158.37 231.19 158.74 232.49 158.88 233.79C158.95 234.39 159.09 235.08 158.88 235.59C158.09 237.47 158.45 239.24 159.1 241.04C159.21 241.34 159.08 242.02 158.93 242.07C156.6 242.75 154.24 243.35 151.76 244C151.76 241.36 151.79 238.57 151.76 235.78C151.69 231.29 151.62 226.8 151.45 222.31C151.41 221.23 151.86 220.91 152.75 220.77C154.74 220.47 156.72 220.15 158.93 219.8L158.9 219.81Z"
        fill="#BD8229" />
    <path
        d="M181.92 207.54C181.92 213.09 181.9 218.37 181.94 223.65C181.94 224.47 182.25 225.28 182.38 226.1C182.42 226.39 182.46 226.85 182.31 226.97C180.79 228.14 179.94 230.17 177.75 230.49C177.35 230.55 177.01 231.02 176.64 231.3C175.88 231.87 175.12 232.44 174.04 233.26C174.32 230.49 174.73 228.18 174.76 225.87C174.8 221.99 174.65 218.1 174.47 214.22C174.41 213 174.69 212.25 175.81 211.6C177.89 210.38 179.85 208.94 181.94 207.54H181.92Z"
        fill="#BD8229" />
    <path
        d="M163.18 239.88C163.18 237.58 163.19 235.53 163.18 233.48C163.14 228.8 163.12 224.12 163.03 219.44C163.01 218.55 163.26 218.17 164.12 217.82C166.22 216.97 168.25 215.93 170.55 214.86C170.4 216.95 170.27 218.97 170.12 220.99C169.89 224.16 169.6 227.33 169.43 230.5C169.39 231.26 169.8 232.03 169.94 232.81C170.12 233.8 170.3 234.8 170.34 235.8C170.34 236.07 169.86 236.43 169.54 236.64C168.12 237.53 166.69 238.41 165.22 239.22C164.64 239.54 163.95 239.64 163.19 239.89L163.18 239.88Z"
        fill="#BD8229" />
    <path
        d="M81.26 246.12C79.17 245.15 77.39 244.43 75.73 243.49C75.29 243.24 74.99 242.32 75.02 241.73C75.29 235.98 75.65 230.22 75.98 224.47C76.09 222.52 76.21 220.57 76.34 218.35C77.82 218.58 79.11 218.72 80.35 219.03C80.68 219.12 81.09 219.76 81.1 220.16C81.21 223.75 81.27 227.35 81.27 230.94C81.27 233.6 81.06 236.26 81.08 238.92C81.09 240.59 81.39 242.27 81.49 243.94C81.53 244.56 81.36 245.19 81.26 246.11V246.12Z"
        fill="#BD8229" />
    <path
        d="M185.9 223.86C186.03 221.02 186.21 218.18 186.29 215.33C186.38 212.05 186.42 208.77 186.4 205.49C186.4 204.66 186.59 204.14 187.25 203.59C189.13 202.04 190.91 200.37 192.74 198.75C193.07 198.45 193.43 198.18 193.77 197.9C193.9 197.94 194.04 197.99 194.17 198.03C194.1 199.39 194.02 200.75 193.96 202.12C193.84 204.74 193.74 207.36 193.64 209.98C193.64 210.17 193.75 210.41 193.67 210.53C192.65 212.09 193.61 213.46 194.02 214.91C194.53 216.74 193.01 217.81 191.93 218.49C189.84 219.81 188.23 221.45 186.9 223.46C186.76 223.68 186.5 223.82 186.29 223.99L185.9 223.86Z"
        fill="#BD8229" />
    <path
        d="M137.02 224.14C136.71 226.03 136.4 227.71 136.18 229.4C136.05 230.37 136.15 231.36 136.02 232.33C135.8 233.99 135.4 235.62 135.24 237.28C134.99 239.79 134.88 242.32 134.7 244.84C134.67 245.31 134.62 245.77 134.57 246.24C134.47 247.29 134.37 248.34 134.24 249.69C133.21 249.77 131.79 249.93 130.37 249.96C130.17 249.96 129.78 249.3 129.78 248.94C129.76 245.8 129.85 242.65 129.82 239.5C129.77 235.51 129.69 231.53 129.5 227.55C129.44 226.23 129.65 225.63 131.13 225.45C133.01 225.23 134.86 224.64 137.01 224.13L137.02 224.14Z"
        fill="#BD8229" />
    <path
        d="M56.78 234.15C55.2 233.1 53.54 232.14 52.07 230.96C51.6 230.59 51.42 229.61 51.45 228.92C51.58 225.71 51.9 222.51 52.02 219.3C52.12 216.69 51.9699 214.06 52.0399 211.45C52.0899 209.64 52.3099 207.84 52.4799 205.81C54.6899 206.6 56.1899 207.87 57.5399 209.34C57.6999 209.52 57.7499 209.87 57.7299 210.14C57.3899 215.07 56.97 220 56.69 224.94C56.58 226.84 56.7599 228.76 56.8499 230.67C56.8999 231.74 57.03 232.8 57.13 233.86C57.02 233.96 56.9099 234.05 56.7899 234.15H56.78Z"
        fill="#BD8229" />
    <path
        d="M49.6299 229.51C48.8399 228.99 48.2299 228.62 47.6599 228.2C46.8399 227.59 45.7999 227.09 45.3199 226.26C44.6599 225.14 44.0899 223.78 44.0799 222.51C44.0499 218.01 44.2399 213.51 44.4099 209.01C44.5199 206.12 44.7499 203.24 44.9399 200.32C47.4499 201.31 48.8899 203.35 48.8699 205.89C48.8299 211.03 48.6299 216.16 48.7199 221.3C48.7599 223.71 49.3199 226.11 49.6299 228.51C49.6599 228.73 49.6299 228.95 49.6299 229.51Z"
        fill="#BD8229" />
    <path
        d="M23.28 176.72C24.24 177.96 25.03 178.99 25.83 180.03C25.92 180.14 25.9599 180.3 26.0699 180.38C27.8999 181.66 27.4599 183.37 27.2199 185.22C26.8999 187.74 26.6099 190.37 26.9899 192.85C27.5899 196.8 27.2099 200.7 27.1699 204.62C27.1599 205.67 27.17 206.71 27.02 207.79C24.7 205.3 22.71 202.67 22.71 199.14C22.71 196.48 22.9699 193.83 23.0499 191.17C23.0999 189.45 23.04 187.73 23.03 186.01C23.02 183.15 23.0099 180.3 23.0099 177.44C23.0099 177.32 23.0999 177.2 23.2899 176.73L23.28 176.72Z"
        fill="#BD8229" />
    <path
        d="M68.43 215.69C70.01 216.41 71.45 216.98 72.77 217.76C73.03 217.91 73 218.97 72.77 219.45C71.86 221.32 72.62 223.12 72.77 224.96C72.8 225.28 72.84 225.61 72.82 225.93C72.57 229.89 72.31 233.86 72.06 237.82C72.04 238.1 72.07 238.39 72.02 238.66C71.7 240.45 70.75 240.99 69.14 240.31C68.71 240.13 68.27 239.93 67.82 239.82C66.93 239.61 66.81 239.03 66.89 238.24C67.25 234.53 67.6 230.81 67.93 227.09C68.18 224.24 68.44 221.4 68.63 218.55C68.69 217.72 68.53 216.88 68.44 215.69H68.43Z"
        fill="#BD8229" />
    <path
        d="M210.36 180.23C210.21 181.46 209.91 182.68 209.93 183.91C209.97 187.09 210.14 190.27 210.28 193.45C210.29 193.77 210.4 194.1 210.52 194.4C210.94 195.49 211.5 196.51 210.79 197.73C209.47 199.99 208.68 202.67 205.69 203.76C205.6 203.32 205.48 202.98 205.46 202.64C205.29 199.46 205.14 196.29 204.99 193.11C204.91 191.47 204.71 189.82 204.86 188.2C204.96 187.14 205.4 186 206 185.11C207.2 183.34 208.63 181.73 209.96 180.05C210.09 180.11 210.23 180.17 210.36 180.24V180.23Z"
        fill="#BD8229" />
    <path
        d="M61.2799 211.46C62.5499 212.09 63.7199 212.66 65.0399 213.31C62.2799 221.17 63.7899 229.44 62.5999 237.49C60.5699 237.31 59.1299 235.85 59.0399 233.74C58.8299 228.84 59.6099 224.03 60.3399 219.21C60.6399 217.27 60.7799 215.31 60.9999 213.36C61.0699 212.76 61.1699 212.17 61.2699 211.46H61.2799Z"
        fill="#BD8229" />
    <path
        d="M5.71995 126.57C5.80995 126.97 5.93995 127.37 5.99995 127.78C6.72995 132.29 7.40996 136.8 8.19996 141.3C8.41996 142.53 9.00996 143.68 9.31996 144.9C9.43996 145.35 9.24994 145.88 9.17994 146.37C9.10994 146.81 8.97993 147.24 8.91993 147.68C8.84993 148.23 8.79998 148.78 8.77998 149.33C8.74998 150.05 8.72994 150.77 8.73994 151.49C8.73994 152 8.83998 152.51 8.83998 153.01C8.83998 155.2 8.82996 157.38 8.81996 159.57C8.81996 161.07 8.71994 162.57 8.79994 164.06C8.96994 167.49 9.20993 170.92 9.41993 174.35C9.42993 174.53 9.41993 174.7 9.41993 174.88C9.26993 174.92 9.11992 174.95 8.96992 174.99C8.71992 174.02 8.33994 173.05 8.23994 172.06C7.54994 165.3 6.84993 158.55 6.28993 151.78C5.81993 146.08 5.48994 140.37 5.20994 134.66C5.07994 131.96 5.18995 129.24 5.18995 126.53C5.36995 126.53 5.53995 126.53 5.71995 126.54V126.57Z"
        fill="#BD8229" />
    <path
        d="M41.2099 222.62C37.4999 220.65 36.7099 217.31 37.0499 213.59C37.4099 209.67 38.0899 205.79 38.4399 201.87C38.6199 199.88 38.3599 197.86 38.3099 195.85C38.2999 195.26 38.3099 194.67 38.3099 193.9C40.7599 195.85 42.0799 198 41.5699 201.15C41.1699 203.64 41.0699 206.18 41.0099 208.71C40.9499 210.99 41.1599 213.27 41.1999 215.55C41.2399 217.89 41.1999 220.23 41.1999 222.63L41.2099 222.62Z"
        fill="#BD8229" />
    <path
        d="M196.61 214.38C196.91 209.9 197.22 205.56 197.49 201.23C197.53 200.53 197.58 199.79 197.39 199.13C196.37 195.64 198.71 193.75 201.08 191.32C201.08 192.41 201.04 193.12 201.08 193.83C201.24 196.15 201.42 198.46 201.63 200.77C201.68 201.27 201.89 201.76 201.98 202.26C202.24 203.66 202.52 205.05 202.71 206.46C202.75 206.78 202.54 207.2 202.33 207.47C200.59 209.72 198.83 211.96 197.06 214.19C196.99 214.28 196.82 214.29 196.59 214.38H196.61Z"
        fill="#BD8229" />
    <path
        d="M218.79 168.88C218.75 169.6 218.6 170.34 218.7 171.05C219.07 173.8 218.18 176.77 220.25 179.22C220.94 180.04 221.09 180.82 220.29 181.94C218.89 183.9 217.88 186.13 216.69 188.23C215.98 189.47 215.23 190.69 214.39 192.11C214.39 190.42 214.14 188.91 214.44 187.51C215.22 183.94 214.77 180.43 214.27 176.92C214.08 175.56 214.27 174.53 215.15 173.43C216.33 171.95 217.26 170.27 218.3 168.68C218.47 168.74 218.63 168.81 218.8 168.87L218.79 168.88Z"
        fill="#BD8229" />
    <path
        d="M12.5099 155.16C13.3399 157.52 14.04 159.93 15.03 162.22C15.99 164.44 15.0099 166.58 15.0499 168.75C15.1499 174.8 14.9599 180.86 15.9799 186.87C16.0899 187.49 15.9899 188.14 15.9899 189.21C15.4499 188.62 15.1699 188.39 14.9899 188.1C14.5299 187.34 14.2499 186.42 13.6599 185.8C11.9999 184.06 12.49 182.02 12.59 179.99C12.68 178.23 12.7199 176.46 12.6899 174.69C12.6499 172.16 12.5599 169.63 12.4499 167.1C12.2999 163.83 12.0899 160.57 11.9499 157.3C11.9199 156.62 12.04 155.93 12.09 155.24C12.23 155.21 12.3799 155.19 12.5199 155.16H12.5099Z"
        fill="#BD8229" />
    <path
        d="M32.17 186.94C32.9 187.77 33.67 188.57 34.34 189.45C34.57 189.75 34.66 190.23 34.65 190.63C34.63 192.72 34.58 194.81 34.5 196.9C34.43 198.67 34.31 200.43 34.21 202.19C34 206.01 33.79 209.83 33.58 213.65C33.55 214.23 33.5099 214.81 33.4699 215.45C31.8099 214.77 30.96 213.66 31.03 212.17C31.19 208.62 31.46 205.07 31.58 201.52C31.64 199.61 31.4299 197.69 31.4099 195.78C31.3799 192.94 31.4099 190.1 31.4099 187.26C31.6699 187.15 31.92 187.04 32.18 186.94H32.17Z"
        fill="#BD8229" />
    <path
        d="M224.49 156.93C223.41 159.55 224.96 161.54 225.76 163.71C226.46 165.62 226.01 167.34 224.9 169C224.52 169.57 224.42 170.33 224.07 171.36C223.81 171 223.43 170.73 223.4 170.42C223.08 167.37 222.65 164.32 222.63 161.27C222.62 159.82 223.42 158.37 223.85 156.92C224.06 156.92 224.28 156.92 224.49 156.93Z"
        fill="#BD8229" />
    <path
        d="M227.53 155.82C227.21 153.6 226.61 151.38 226.68 149.17C226.72 147.76 227.73 146.38 228.51 145.06C229.27 148.77 228.54 152.28 227.54 155.82H227.53Z"
        fill="#BD8229" />
    <path
        d="M19.28 174.1C19.03 175.79 18.78 177.47 18.53 179.17C17.94 178.36 18.23 175.53 19.28 174.1Z"
        fill="#BD8229" />
    <path
        d="M24 111.31C24.24 103.07 25.22 96.83 27.06 90.74C27.86 88.1 29.14 85.6 29.93 82.96C32.75 73.52 36.99 64.79 42.88 56.91C45.32 53.64 48.07 50.65 51.66 48.49C55.96 45.91 59.4 42.27 63 38.84C65.41 36.55 67.93 34.36 70.44 32.17C70.96 31.72 71.65 31.46 72.29 31.18C76.48 29.31 80.64 27.35 84.9 25.64C86.83 24.86 88.97 24.61 90.99 24.03C94.46 23.04 97.89 21.93 101.36 20.96C103.2 20.44 105.08 19.96 106.98 19.74C108.4 19.57 109.87 19.89 111.32 19.9C114.49 19.92 117.68 19.74 120.84 19.9C124.89 20.12 128.94 20.55 132.97 20.99C135.29 21.24 137.58 21.93 139.89 21.98C145.47 22.09 150.5 23.86 155.44 26.29C158.15 27.62 161.13 28.42 164.02 29.36C165.42 29.81 166.67 30.26 167.68 31.49C168.45 32.41 169.67 33.01 170.77 33.6C172.54 34.54 174.53 35.12 176.15 36.25C178.83 38.11 181.26 40.32 183.85 42.31C185.59 43.65 187.49 44.79 189.21 46.17C190.62 47.31 191.89 48.63 193.17 49.93C195.47 52.27 197.61 54.72 198.84 57.86C199.76 60.22 200.9 62.49 201.95 64.8C202.14 65.23 202.32 65.69 202.62 66.04C204.72 68.49 205.36 71.63 206.62 74.47C206.9 75.1 207.07 75.84 207.06 76.52C206.97 80.47 208.58 84 209.68 87.66C210.85 91.58 211.92 95.53 213.1 99.45C213.74 101.59 214.55 103.68 215.21 105.82C215.58 107.02 215.78 108.27 216.1 109.49C216.16 109.71 216.5 109.85 216.56 110.06C216.72 110.63 217.08 111.5 216.84 111.75C215.87 112.77 216.15 113.93 216.15 115.07C216.16 117.18 216.15 119.29 216.24 121.4C216.29 122.66 215.9 123.62 215.01 124.53C214.55 125 214.37 125.79 214.18 126.46C213.66 128.29 213.23 130.15 212.7 131.98C212.02 134.31 211.26 136.62 210.54 138.94C209.3 142.91 207.74 146.73 205.97 150.52C204.53 153.6 202.93 156.5 201.05 159.29C199.38 161.77 197.49 164.11 195.98 166.68C193.81 170.4 190.59 173.13 187.68 176.16C187 176.87 186.31 177.59 185.76 178.4C182.94 182.59 178.54 185.04 174.88 188.3C173.26 189.74 171.13 190.58 169.33 191.83C165.11 194.79 160.35 196.61 155.63 198.49C152.65 199.68 149.59 200.71 146.5 201.58C141.2 203.06 135.89 204.6 130.5 205.64C127.37 206.24 124.06 205.92 120.84 205.95C119.2 205.97 117.55 205.96 115.93 205.78C112.55 205.4 109.18 204.88 105.81 204.47C104.43 204.3 103.03 204.16 101.63 204.14C97.88 204.07 94.4 202.98 90.94 201.64C89.12 200.94 87.13 200.67 85.24 200.15C83.03 199.55 80.86 198.82 78.64 198.26C76.22 197.65 73.75 197.19 71.32 196.63C70.66 196.48 69.92 196.31 69.41 195.9C67.42 194.3 65.59 192.49 63.55 190.96C59.74 188.09 56.49 184.67 53.51 180.98C50.8 177.64 48.05 174.32 45.48 170.87C41.31 165.26 37.82 159.21 34.28 153.19C30.81 147.27 29.47 140.85 28.16 134.32C27.54 131.25 26.44 128.26 25.92 125.18C25.04 119.97 24.46 114.71 24 111.31ZM184.77 110.29C184.91 110.27 185.04 110.25 185.18 110.23C184.49 105.42 183.78 100.61 183.12 95.79C182.72 92.87 181.76 90.18 180.35 87.59C179.53 86.07 179.07 84.37 178.35 82.79C177.14 80.12 176.02 77.38 174.53 74.86C173.31 72.79 171.86 70.69 170.04 69.17C167.69 67.2 164.93 65.7 162.25 64.17C159.07 62.36 155.71 60.86 152.57 58.99C145.64 54.88 138.16 52.57 130.22 51.55C129.71 51.48 129.19 51.55 128.67 51.58C126.19 51.75 123.72 51.89 121.24 52.1C117.14 52.45 113.04 52.74 108.95 53.23C103.1 53.93 97.64 55.98 92.39 58.58C88.83 60.34 85.3 62.17 81.79 64.03C80.3 64.82 78.94 65.85 77.45 66.64C71.61 69.75 66.26 73.44 62.25 78.83C61.05 80.44 59.6 81.89 58.57 83.61C57.48 85.44 56.72 87.48 55.88 89.45C54.51 92.67 53.14 95.86 52.99 99.47C52.88 102.17 52.68 104.92 52.09 107.55C51.17 111.68 51.75 115.82 51.72 119.94C51.7 122.51 52.46 125.09 52.98 127.65C53.39 129.66 54.17 131.61 54.44 133.64C54.79 136.23 55.32 138.72 56.61 140.99C57.63 142.78 58.81 144.48 59.78 146.3C61.87 150.25 64.39 153.82 67.97 156.6C70.23 158.35 72.32 160.33 74.6 162.05C77.3 164.07 80.25 165.76 82.87 167.87C87.24 171.39 92.41 173.12 97.67 174.36C101.08 175.16 104.76 174.72 108.29 175.1C113.34 175.63 118.41 174.34 123.51 176.03C127.53 177.36 131.82 176 135.77 174.7C139 173.64 142.09 172.08 145.1 170.49C148.77 168.54 152.34 166.39 155.88 164.21C160.16 161.58 163.74 158.15 166.79 154.15C167.13 153.71 167.53 153.29 167.96 152.94C171.51 150.08 174.24 146.55 176.43 142.57C176.86 141.79 177.41 141.07 177.8 140.28C179.39 137 181.45 133.84 182.38 130.37C184.13 123.85 184.85 117.11 184.75 110.32L184.77 110.29Z"
        fill="#FFC60B" />
    <path
        d="M89.8 31.37C100.5 29.62 110.13 28.75 120.78 30.93C131.72 33.17 142.51 36.11 153.07 39.74C166.21 44.26 179.35 50.08 188.96 60.11C197.49 69.02 202.67 80.75 205.21 92.82C207.75 104.89 207.78 117.35 207.08 129.67C206.76 135.26 206.28 140.92 204.44 146.22C202.18 152.76 197.89 158.69 197.12 165.57C201.38 164.89 204.05 160.71 206.04 156.89C210.04 149.23 214.97 140.46 216.03 131.76C216.28 129.66 216.21 127.53 216.51 125.43C217.43 118.81 219.29 113.04 217.39 106.36C215.26 98.87 213.12 91.37 210.99 83.88C208.75 76.02 206.5 68.12 202.92 60.77C195.24 45.01 181.38 32.35 164.96 26.21C152.09 21.39 138.12 20.53 124.4 19.72C117.9 19.34 111.38 18.95 104.89 19.5C95.81 20.27 86.99 22.85 78.24 25.42C75.21 26.31 61.73 30.21 68.81 34.89C71.61 36.74 74.87 34.62 77.71 33.84C81.68 32.75 85.74 32.04 89.79 31.38L89.8 31.37Z"
        fill="#FFF6A4" />
    <path
        d="M123.98 171.58C117.21 171.15 110.43 170.82 103.67 170.21C101.73 170.03 99.8699 169.02 97.9799 168.38C95.4599 167.54 92.9699 166.55 90.4099 165.89C85.7799 164.7 82.0399 162.08 78.5399 158.99C76.2899 157.01 73.9099 155.18 71.7399 153.11C69.3699 150.86 66.9799 148.59 64.9799 146.03C62.5899 142.98 60.7 139.62 59.77 135.73C59 132.51 57.68 129.43 56.64 126.28C56.47 125.76 56.4099 125.18 56.3799 124.62C56.2099 121.03 55.96 117.44 55.96 113.86C55.96 111.57 56.2999 109.28 56.5599 107C56.9499 103.65 57.2999 100.28 57.8699 96.96C58.1699 95.23 58.7999 93.53 59.4799 91.91C60.2299 90.14 61.26 88.5 62.08 86.76C64.31 82.05 67.54 78.17 71.64 74.98C73.56 73.49 75.3 71.72 77.33 70.4C79.72 68.85 82.3199 67.61 84.8499 66.3C88.4599 64.43 92 62.35 95.7599 60.85C99.3999 59.41 103.22 58.22 107.08 57.63C109.66 57.24 112.39 57.53 115 56.87C120.41 55.51 125.88 55.99 131.37 56.23C135.07 56.39 138.57 57.36 142.12 58.19C143.38 58.48 144.58 59.09 145.74 59.7C148.52 61.16 151.25 62.73 154.01 64.21C156.82 65.72 159.72 67.07 162.46 68.7C163.83 69.51 164.96 70.74 166.11 71.88C167.37 73.13 168.77 74.33 169.67 75.82C171.16 78.29 172.24 81.01 173.6 83.56C174.48 85.21 175.52 86.77 176.56 88.33C177.65 89.97 178.2 91.72 178.41 93.7C178.6 95.59 179.23 97.43 179.68 99.29C180.82 103.96 181.36 108.67 180.74 113.48C180.26 117.24 180.05 121.03 179.46 124.77C178.77 129.15 177.28 133.29 174.66 136.93C172.42 140.04 170.39 143.38 167.77 146.14C163.61 150.53 159.7 155.14 154.75 158.84C148.83 163.27 142.38 166.54 135.73 169.56C132.64 170.96 129.27 171.05 125.96 171.35C125.31 171.41 124.65 171.43 123.99 171.46C123.99 171.5 123.99 171.54 123.99 171.58H123.98Z"
        fill="#FFF6A4" />
    <path
        d="M122.69 212.27C116.05 211.99 109.39 211.84 102.77 211.37C100.19 211.18 97.66 210.22 95.1 209.67C91.3 208.84 87.49 208.09 83.7 207.25C82.24 206.93 80.82 206.44 79.38 206.07C78.22 205.77 77.03 205.57 75.87 205.27C75.1 205.07 74.26 204.93 73.62 204.51C70.53 202.5 67.44 200.46 64.44 198.32C61.42 196.17 58.6 193.74 55.51 191.72C51.72 189.24 48.71 185.99 45.73 182.68C43.88 180.63 41.93 178.62 40.38 176.35C37.52 172.14 34.21 168.26 31.89 163.64C29.25 158.38 25.8 153.51 23.24 148.21C21.76 145.16 21.04 141.65 20.51 138.26C19.76 133.45 19.42 128.57 19.06 123.71C18.83 120.58 18.88 117.44 18.77 114.3C18.73 113.23 18.58 112.16 18.46 111.1C17.98 106.67 19.06 102.35 19.33 97.97C19.53 94.82 20.21 91.81 21.53 88.89C22.77 86.15 23.48 83.17 24.56 80.36C25.68 77.44 26.99 74.58 28.18 71.68C29.23 69.13 29.95 66.4 31.32 64.05C33.31 60.64 35.75 57.49 38 54.24C38.08 54.12 38.21 54.04 38.26 53.91C39.16 51.89 40.72 50.49 42.4 49.1C45.45 46.58 48.31 43.83 51.3 41.24C53.3 39.5 55.43 37.9 57.42 36.15C58.04 35.6 58.25 34.58 58.88 34.07C60.22 32.99 61.69 32.03 63.17 31.14C66.87 28.93 70.29 26.35 73.66 23.66C75.1 22.51 77.1 22.08 78.85 21.33C79.7 20.96 80.55 20.58 81.41 20.25C83.41 19.49 85.41 18.73 87.42 18C89.57 17.22 91.72 16.45 93.89 15.7C98.55 14.08 103.3 12.85 108.29 13.06C109.25 13.1 110.2 13.74 111.14 13.7C113.31 13.61 115.46 13.28 117.63 13.04C117.68 13.04 117.72 13 117.76 13.01C120.36 13.57 123.05 12.3 125.67 13.47C126.71 13.93 127.96 13.93 129.12 14.09C131.36 14.41 133.61 14.68 135.85 14.99C138.91 15.41 141.96 15.93 145.03 16.26C148.13 16.59 151.11 17.21 153.93 18.58C157.33 20.24 160.72 21.92 164.16 23.48C166.93 24.73 169.8 25.75 172.56 27C173.65 27.49 174.56 28.36 175.55 29.06C177 30.09 178.45 31.13 179.9 32.17C183.89 35.04 187.98 37.78 191.83 40.81C194.35 42.8 196.69 45.07 198.85 47.46C202.71 51.74 205.74 56.6 208.18 61.82C209.47 64.58 210.37 67.55 211.84 70.2C214.59 75.13 215.84 80.47 216.93 85.92C217.54 88.95 218.63 91.88 219.27 94.9C220.04 98.51 220.55 102.17 221.19 105.81C221.37 106.82 221.51 107.86 221.82 108.83C222.64 111.4 222.35 113.92 221.63 116.44C221.53 116.79 221.53 117.17 221.47 117.54C221.31 118.62 221.13 119.7 220.98 120.79C220.81 121.96 220.34 123.22 220.59 124.3C221.1 126.5 220.27 128.36 219.66 130.31C219.56 130.62 219.38 130.92 219.35 131.24C218.75 137.28 215.53 142.33 213.09 147.67C211.69 150.73 210.2 153.75 208.61 156.71C207.75 158.31 206.52 159.71 205.61 161.3C204.07 163.99 202.87 166.88 201.15 169.44C199.31 172.19 197.02 174.63 194.97 177.24C193.85 178.67 192.95 180.29 191.75 181.65C189.08 184.67 186.14 187.4 182.74 189.64C178.21 192.63 173.81 195.83 169.22 198.73C167.06 200.09 164.63 201.04 162.24 201.99C156.97 204.09 151.65 206.06 146.36 208.11C140.19 210.5 133.84 211.97 127.19 212.02C125.69 212.03 124.18 212.02 122.68 212.02C122.68 212.11 122.68 212.2 122.68 212.3L122.69 212.27ZM24 111.32C24.46 114.72 25.05 119.98 25.92 125.19C26.44 128.28 27.54 131.26 28.16 134.33C29.48 140.86 30.81 147.28 34.28 153.2C37.82 159.23 41.31 165.27 45.48 170.88C48.05 174.33 50.8 177.65 53.51 180.99C56.49 184.68 59.74 188.09 63.55 190.97C65.59 192.5 67.42 194.31 69.41 195.91C69.92 196.32 70.66 196.49 71.32 196.64C73.76 197.21 76.22 197.66 78.64 198.27C80.86 198.83 83.03 199.56 85.24 200.16C87.14 200.68 89.12 200.94 90.94 201.65C94.4 202.99 97.88 204.08 101.63 204.15C103.02 204.18 104.42 204.31 105.81 204.48C109.19 204.9 112.55 205.42 115.93 205.79C117.55 205.97 119.21 205.97 120.84 205.96C124.07 205.93 127.38 206.25 130.5 205.65C135.9 204.62 141.2 203.08 146.5 201.59C149.59 200.73 152.65 199.69 155.63 198.5C160.35 196.62 165.11 194.79 169.33 191.84C171.13 190.58 173.26 189.74 174.88 188.31C178.54 185.06 182.94 182.6 185.76 178.41C186.31 177.6 187 176.88 187.68 176.17C190.59 173.14 193.81 170.41 195.98 166.69C197.48 164.12 199.38 161.78 201.05 159.3C202.92 156.51 204.53 153.61 205.97 150.53C207.74 146.74 209.3 142.92 210.54 138.95C211.26 136.63 212.02 134.32 212.7 131.99C213.24 130.16 213.66 128.3 214.18 126.47C214.37 125.79 214.55 125.01 215.01 124.54C215.89 123.63 216.29 122.67 216.24 121.41C216.15 119.3 216.16 117.19 216.15 115.08C216.15 113.94 215.86 112.77 216.84 111.76C217.08 111.51 216.71 110.64 216.56 110.07C216.5 109.85 216.16 109.71 216.1 109.5C215.78 108.28 215.58 107.03 215.21 105.83C214.55 103.69 213.74 101.6 213.1 99.46C211.92 95.54 210.86 91.59 209.68 87.67C208.58 84.01 206.97 80.48 207.06 76.53C207.08 75.85 206.9 75.11 206.62 74.48C205.36 71.64 204.72 68.5 202.62 66.05C202.32 65.7 202.15 65.24 201.95 64.81C200.9 62.5 199.77 60.23 198.84 57.87C197.61 54.73 195.47 52.28 193.17 49.94C191.9 48.64 190.63 47.32 189.21 46.18C187.5 44.8 185.6 43.66 183.85 42.32C181.26 40.33 178.83 38.12 176.15 36.26C174.53 35.13 172.54 34.55 170.77 33.61C169.67 33.03 168.45 32.43 167.68 31.5C166.66 30.28 165.42 29.82 164.02 29.37C161.13 28.43 158.15 27.63 155.44 26.3C150.5 23.87 145.47 22.11 139.89 21.99C137.58 21.94 135.29 21.25 132.97 21C128.93 20.56 124.89 20.13 120.84 19.91C117.68 19.74 114.49 19.92 111.32 19.91C109.87 19.91 108.4 19.58 106.98 19.75C105.08 19.98 103.21 20.46 101.36 20.97C97.89 21.94 94.46 23.05 90.99 24.04C88.97 24.62 86.83 24.87 84.9 25.65C80.64 27.37 76.48 29.32 72.29 31.19C71.65 31.48 70.96 31.73 70.44 32.18C67.93 34.36 65.41 36.55 63 38.85C59.39 42.28 55.95 45.91 51.66 48.5C48.08 50.66 45.32 53.65 42.88 56.92C36.99 64.81 32.76 73.54 29.93 82.97C29.14 85.61 27.86 88.11 27.06 90.75C25.22 96.83 24.24 103.08 24 111.32Z"
        fill="black" />
    <path
        d="M56.6699 106.92C59.3999 116.74 58.5499 127.61 63.2999 136.62C65.4299 140.66 68.5699 144.06 71.7299 147.36C76.0699 151.89 80.3599 156.97 85.7399 160.29C88.1799 161.79 90.7999 162.96 93.4899 163.93C112.81 170.94 134.39 167.98 153.99 161.8C153.58 164.83 150.68 166.79 148.05 168.36C144.5 170.48 140.89 172.63 136.86 173.56C134.55 174.1 132.17 174.22 129.8 174.29C119.72 174.58 109.62 173.87 99.6799 172.18C97.3999 171.79 95.1099 171.35 92.9099 170.64C86.8399 168.69 81.5999 164.82 76.4799 161.01C74.1499 159.27 71.8099 157.53 69.7399 155.49C66.6999 152.5 64.2999 148.94 61.9199 145.41C60.0599 142.64 58.1699 139.84 57.0599 136.69C56.0499 133.84 55.7099 130.81 55.4399 127.8C54.9699 122.54 54.68 117.26 54.59 111.97C54.55 109.97 54.2199 106.85 56.6699 106.91V106.92Z"
        fill="white" />
    <path
        d="M184.77 110.3C184.87 117.09 184.15 123.83 182.4 130.35C181.47 133.81 179.4 136.98 177.82 140.26C177.43 141.06 176.88 141.77 176.45 142.55C174.26 146.53 171.53 150.06 167.98 152.92C167.55 153.27 167.14 153.69 166.81 154.13C163.77 158.13 160.19 161.56 155.9 164.19C152.36 166.37 148.79 168.53 145.12 170.47C142.11 172.07 139.01 173.62 135.79 174.68C131.84 175.97 127.56 177.34 123.53 176.01C118.43 174.32 113.36 175.61 108.31 175.08C104.78 174.71 101.1 175.15 97.69 174.34C92.43 173.1 87.26 171.36 82.89 167.85C80.27 165.74 77.32 164.05 74.62 162.03C72.33 160.32 70.25 158.33 67.99 156.58C64.41 153.81 61.8899 150.23 59.7999 146.28C58.8399 144.46 57.65 142.76 56.63 140.97C55.34 138.7 54.81 136.2 54.46 133.62C54.19 131.6 53.41 129.65 53 127.63C52.48 125.08 51.72 122.49 51.74 119.92C51.77 115.8 51.1899 111.66 52.1099 107.53C52.6999 104.9 52.9 102.15 53.01 99.45C53.16 95.85 54.53 92.6499 55.9 89.4299C56.74 87.4599 57.5 85.4199 58.59 83.5899C59.61 81.8799 61.07 80.4299 62.27 78.8099C66.28 73.4199 71.6299 69.7299 77.4699 66.6199C78.9599 65.8299 80.32 64.7999 81.81 64.0099C85.32 62.1499 88.8499 60.3199 92.4099 58.5599C97.6599 55.9599 103.12 53.91 108.97 53.21C113.05 52.72 117.16 52.4299 121.26 52.0799C123.73 51.8699 126.21 51.7199 128.69 51.5599C129.2 51.5299 129.73 51.4699 130.24 51.5299C138.17 52.5499 145.66 54.8599 152.59 58.9699C155.73 60.8299 159.09 62.3299 162.27 64.1499C164.95 65.6799 167.72 67.1799 170.06 69.1499C171.88 70.6699 173.32 72.7699 174.55 74.8399C176.04 77.3599 177.15 80.0999 178.37 82.7699C179.09 84.3499 179.55 86.06 180.37 87.57C181.78 90.16 182.74 92.8599 183.14 95.7699C183.81 100.59 184.51 105.4 185.2 110.21C185.06 110.23 184.93 110.25 184.79 110.27L184.77 110.3ZM123.98 171.58C123.98 171.58 123.98 171.5 123.98 171.46C124.64 171.42 125.29 171.41 125.95 171.35C129.26 171.05 132.63 170.96 135.72 169.56C142.37 166.54 148.82 163.26 154.74 158.84C159.68 155.14 163.59 150.53 167.76 146.14C170.38 143.38 172.41 140.05 174.65 136.93C177.27 133.29 178.76 129.15 179.45 124.77C180.04 121.03 180.25 117.24 180.73 113.48C181.35 108.67 180.81 103.96 179.67 99.29C179.22 97.43 178.59 95.59 178.4 93.7C178.2 91.72 177.64 89.9699 176.55 88.3299C175.51 86.7699 174.47 85.2099 173.59 83.5599C172.23 81.0099 171.15 78.29 169.66 75.82C168.76 74.33 167.36 73.13 166.1 71.88C164.95 70.74 163.82 69.5099 162.45 68.6999C159.71 67.0699 156.81 65.72 154 64.21C151.23 62.73 148.51 61.1599 145.73 59.6999C144.57 59.0899 143.37 58.4799 142.11 58.1899C138.57 57.3599 135.07 56.3899 131.36 56.2299C125.87 55.9899 120.4 55.5099 114.99 56.8699C112.38 57.5299 109.65 57.24 107.07 57.63C103.22 58.22 99.39 59.4 95.75 60.85C91.98 62.35 88.45 64.4299 84.84 66.2999C82.3 67.6099 79.7 68.8499 77.32 70.3999C75.29 71.7199 73.56 73.4899 71.63 74.9799C67.52 78.1699 64.3 82.05 62.07 86.76C61.25 88.5 60.2199 90.1399 59.4699 91.91C58.7799 93.5299 58.1599 95.2299 57.8599 96.9599C57.2899 100.28 56.9399 103.65 56.5499 107C56.2899 109.28 55.95 111.57 55.95 113.86C55.95 117.45 56.2 121.04 56.37 124.62C56.4 125.18 56.45 125.75 56.63 126.28C57.67 129.43 59 132.52 59.76 135.73C60.69 139.63 62.5799 142.99 64.9699 146.03C66.9699 148.59 69.3699 150.86 71.7299 153.11C73.8999 155.17 76.28 157 78.53 158.99C82.03 162.08 85.77 164.7 90.4 165.89C92.97 166.55 95.4499 167.54 97.9699 168.38C99.8699 169.01 101.73 170.03 103.66 170.21C110.41 170.83 117.2 171.15 123.97 171.58H123.98Z"
        fill="black" />
    <path
        d="M199.13 146.76C195.64 154.03 191.29 160.78 187.96 168C184.89 174.66 177.05 179.31 171.03 182.93C161.2 188.84 150.3 194.7 138.46 192.63C134.11 191.87 129.97 190.24 125.97 188.37C125.04 187.93 124.07 187.44 123.49 186.59C122.79 185.55 122.84 184.12 123.44 183.02C125.14 179.93 130.95 179.59 134.02 179.15C143.06 177.87 152.04 175.09 159.98 170.53C169.08 165.31 174.87 156.86 181.08 148.55C186.47 141.33 189.81 132.6 190.61 123.63C190.69 122.79 190.75 121.9 191.23 121.2C194.03 117.05 199.89 124.99 201.19 127.16C204.63 132.94 201.89 141.04 199.14 146.76H199.13Z"
        fill="white" />
    <path
        d="M79.5399 39.16C87.5299 36.94 92.4799 47.79 85.7199 52.59C75.4399 59.87 65.1299 66.85 54.9299 74.21C49.0499 78.45 41.8399 70.93 46.4199 65.32C56.0399 53.55 67.7599 42.43 79.5299 39.16H79.5399Z"
        fill="white" />
    <path
        d="M111.908 44.6495C120.552 44.0466 127.286 39.6274 126.948 34.7791C126.61 29.9308 119.328 26.4893 110.683 27.0922C102.039 27.6952 95.3056 32.1143 95.6438 36.9626C95.982 41.8109 103.264 45.2525 111.908 44.6495Z"
        fill="white" />
    <path
        d="M165.67 128.92C165.49 123.31 161.47 118.48 157.47 114.92C155.31 112.99 152.94 111.29 150.45 109.82C147.75 108.23 144.91 108.15 141.84 107.74C141.49 107.69 141.03 107.45 141.18 107.14C146.17 103.85 150.69 99.8399 154.54 95.2699C155.8 93.7699 157.01 92.1999 157.9 90.4499C160.76 84.8299 160.1 78.0599 158.41 71.9899C158.23 71.3499 158.01 70.6599 157.45 70.2999C156.95 69.9699 156.31 69.9899 155.71 70.0399C147.42 70.6699 139.36 73.9799 133.01 79.3499C126.67 84.7199 122.08 92.1399 120.1 100.21C118.57 97.8699 117.34 95.0699 116.94 92.2799C116.62 89.9999 116.98 87.7999 116.61 85.4499C115.76 79.9599 114.87 74.4699 114.27 68.9499C113.88 65.3099 109.9 61.5599 106.77 62.7799C103.73 63.9599 100.73 65.2299 97.73 66.5099C96.17 67.1699 94.44 67.7099 92.97 68.5499C92.01 69.0899 91.41 70.2399 91.8 71.3299C92.24 72.5699 92.65 73.8299 93.07 75.0799C96.23 84.4399 99.36 93.8099 102.68 103.11C104.06 106.99 103.81 109.51 99.88 111.85C95.9 114.21 92.14 117.2 88.95 120.56C82.47 127.37 79.19 135.87 80.14 145.39C81.09 154.94 90.29 160.04 99.02 160.9C112.19 162.19 125.14 161.02 137.57 155.93C141.27 154.42 145.42 153.83 148.84 151.89C152.11 150.04 154.98 147.23 157.51 144.38C159.59 142.05 161.01 139.24 162.92 136.79C164.95 134.19 165.75 131.54 165.67 128.93V128.92Z"
        fill="black" />
    <path
        d="M160.56 128.06C159.25 119.52 145.52 110.11 136.8 110.72C133.15 110.98 129.43 110.18 125.73 109.79C130.33 113.86 135.75 120.98 133.65 130.95C131.73 140.05 127.8 148.36 124.65 153.99C129.77 152.64 134.85 150.99 139.97 149.62C148.3 147.88 153.58 141.85 158.68 135.96C160.28 134.11 160.95 130.59 160.56 128.06Z"
        fill="#F39321" />
    <path
        d="M125.73 109.79C125.36 109.75 124.99 109.71 124.63 109.68C122.67 109.53 120.55 109.15 118.75 109.68C114.12 111.05 109.32 112.32 105.13 114.63C98.2701 118.42 90.3101 121.43 88.2801 130.39C87.5501 133.59 87.2901 136.92 87.0301 140.21C86.5401 146.38 90.89 154 96.66 155.1C102.74 156.26 109.25 156.89 115.31 155.99C118.45 155.52 121.56 154.81 124.66 154C127.8 148.37 131.74 140.06 133.66 130.96C135.76 120.98 130.35 113.86 125.74 109.8L125.73 109.79Z"
        fill="#FFA905" />
    <path
        d="M141.05 126.77C141.13 126.66 141.23 126.55 141.36 126.47C142.34 125.82 143.14 125.58 144.28 126C145.15 126.33 145.83 127 146.08 127.9C146.31 128.72 145.6 130.37 144.85 130.77C142.97 131.78 140.03 128.23 141.05 126.76V126.77Z"
        fill="#E60024" />
    <path
        d="M131.47 125.4C131.38 125.24 131.32 125.05 131.29 124.83C131.18 124.15 131.47 123.46 131.94 122.96C132.4 122.47 133.02 122.15 133.68 122.05C133.76 122.04 133.85 122.03 133.92 122.07C133.99 122.1 134.04 122.17 134.08 122.24C134.94 123.59 135.54 124.85 133.73 125.81C132.9 126.25 131.91 126.21 131.48 125.41L131.47 125.4Z"
        fill="#E60024" />
    <path
        d="M152.31 120.68C152.42 120.91 152.49 121.14 152.5 121.37C152.5 121.82 151.81 123.44 151.25 123.4C150.07 123.31 148.72 122.59 147.91 121.7C147.57 121.33 148.2 119.91 148.48 119.63C149.09 119.03 150.27 119.04 150.99 119.37C151.47 119.59 152.03 120.11 152.31 120.68Z"
        fill="#E60024" />
    <path
        d="M142.56 140.8C142.3 140.46 142.28 139.93 142.4 139.45C142.5 139.04 142.51 138.35 142.81 138.06C143.42 137.45 144.7 137.61 145.37 138.01C146.34 138.58 146.01 139.77 145.24 140.44C144.94 140.7 144.56 140.84 144.19 140.97C143.93 141.06 143.66 141.16 143.39 141.16C143 141.16 142.73 141.02 142.56 140.79V140.8Z"
        fill="#E60024" />
    <path
        d="M136.39 136.53C135.84 136.77 135.22 136.98 134.66 136.77C133.2 136.23 133.42 134.82 134.61 134.18C136.32 133.26 138.9 135.42 136.44 136.5C136.42 136.5 136.41 136.51 136.39 136.52V136.53Z"
        fill="#E60024" />
    <path
        d="M136.07 144.03C136.07 144.03 136.09 144.07 136.1 144.09C136.47 144.77 135.15 146.79 134.53 147.26C133.72 147.86 132.43 146.76 132.38 145.94C132.33 145.22 132.98 144.23 133.44 143.69C133.94 143.1 135.64 143.39 136.08 144.03H136.07Z"
        fill="#E60024" />
    <path
        d="M155.11 131.31C155.11 131.31 155.11 131.38 155.12 131.42C155.16 131.75 155.06 132.16 154.83 132.41C154.65 132.6 154.4 132.7 154.16 132.79C153.8 132.93 153.43 133.07 153.04 133.1C152.44 133.15 152.03 132.86 151.64 132.44C151.4 132.17 152.03 130.46 152.37 130.43C153.07 130.36 153.85 130.55 154.51 130.77C154.98 130.93 155.06 130.89 155.11 131.31Z"
        fill="#E60024" />
    <path
        d="M139.81 117.2C139.88 117.15 139.96 117.11 140.05 117.09C140.17 117.05 140.3 117.06 140.43 117.06C141.05 117.08 141.96 117 142.26 117.72C142.47 118.19 141.94 119.59 141.49 119.81C141.05 120.03 140.55 120.12 140.07 120.02C139.32 119.87 138.98 119.44 138.87 118.72C138.75 117.94 139.04 117.71 139.69 117.27C139.73 117.24 139.77 117.22 139.81 117.19V117.2Z"
        fill="#E60024" />
    <path
        d="M141.68 87.73C142.71 86.69 143.74 85.62 146.06 86.96C139.6 93.24 133.43 99.24 127.12 105.37C129.77 107.02 140.8 103.32 145.26 99.37C151.84 93.53 156.27 79.66 153.46 73.75C140.77 76.25 126.52 92.75 125.91 103.44C126.38 103.07 126.74 102.84 127.03 102.54C131.92 97.61 136.8 92.67 141.68 87.74V87.73Z"
        fill="#00975C" />
    <path
        d="M114.39 102.96C113.87 98.3499 112.87 93.7899 111.93 89.2399C110.49 82.2799 108.94 75.3399 107.44 68.3799C97.8 70.8899 97.16 72.0799 100.06 80.4699C102.79 88.3499 105.31 96.3199 108.24 104.12C108.73 105.42 110.9 106.08 112.29 107.04C113.03 105.67 114.54 104.22 114.39 102.96Z"
        fill="#C09680" />
    <path
        d="M97.0901 122.66C96.2001 123.38 95.3401 124.2 94.8401 125.23C93.9401 127.08 94.3201 129.37 95.4301 131.11C96.5401 132.85 98.2501 134.1 100.05 135.11C100.85 135.55 101.68 135.96 102.58 136.14C103.74 136.37 104.95 136.18 106.1 135.94C109.97 135.13 113.85 133.51 116.39 130.48C119.17 127.17 120.67 119.13 115.06 117.96C108.93 116.68 101.89 118.78 97.1001 122.67L97.0901 122.66Z"
        fill="white" />
</svg>