<svg width="87" height="100" viewBox="0 0 87 100" fill="none" xmlns="http://www.w3.org/2000/svg">
    <path
        d="M86.67 66.92C86.49 61.31 82.47 56.48 78.47 52.92C76.31 50.99 73.94 49.2899 71.45 47.8199C68.75 46.2299 65.91 46.1499 62.84 45.7399C62.49 45.6899 62.03 45.45 62.18 45.14C67.17 41.85 71.69 37.8399 75.54 33.2699C76.8 31.7699 78.01 30.1999 78.9 28.4499C81.76 22.8299 81.1 16.0599 79.41 9.98994C79.23 9.34994 79.01 8.65994 78.45 8.29994C77.95 7.96994 77.31 7.98993 76.71 8.03993C68.42 8.66993 60.36 11.9799 54.01 17.3499C47.67 22.7199 43.08 30.1399 41.1 38.2099C39.57 35.8699 38.34 33.0699 37.94 30.2799C37.62 27.9999 37.98 25.7999 37.61 23.4499C36.76 17.9599 35.87 12.4699 35.27 6.94993C34.88 3.30993 30.9 -0.440064 27.77 0.779936C24.73 1.95994 21.73 3.22993 18.73 4.50993C17.17 5.16993 15.44 5.70994 13.97 6.54994C13.01 7.08994 12.41 8.23994 12.8 9.32994C13.24 10.5699 13.65 11.8299 14.07 13.0799C17.23 22.4399 20.36 31.8099 23.68 41.1099C25.06 44.9899 24.81 47.5099 20.88 49.8499C16.9 52.2099 13.14 55.1999 9.95002 58.5599C3.47002 65.3699 0.190023 73.8699 1.14002 83.39C2.09002 92.94 11.29 98.0399 20.02 98.8999C33.19 100.19 46.14 99.0199 58.57 93.9299C62.27 92.4199 66.42 91.83 69.84 89.89C73.11 88.04 75.98 85.2299 78.51 82.3799C80.59 80.0499 82.01 77.2399 83.92 74.7899C85.95 72.1899 86.75 69.5399 86.67 66.9299V66.92Z"
        fill="black" />
    <path
        d="M81.5601 66.0599C80.2501 57.5199 66.5201 48.1099 57.8001 48.7199C54.1501 48.9799 50.4301 48.1799 46.7301 47.7899C51.3301 51.8599 56.7501 58.9799 54.6501 68.9499C52.7301 78.0499 48.8001 86.3599 45.6501 91.9899C50.7701 90.6399 55.8501 88.9899 60.9701 87.6199C69.3001 85.8799 74.5801 79.8499 79.6801 73.9599C81.2801 72.1099 81.9501 68.5899 81.5601 66.0599Z"
        fill="#F39321" />
    <path
        d="M46.73 47.7899C46.36 47.7499 45.9901 47.7099 45.6301 47.6799C43.6701 47.5299 41.5501 47.1499 39.7501 47.6799C35.1201 49.0499 30.3201 50.3199 26.1301 52.6299C19.2701 56.4199 11.3101 59.4299 9.28009 68.3899C8.55009 71.5899 8.29009 74.9199 8.03009 78.2099C7.54009 84.3799 11.89 91.9999 17.66 93.0999C23.74 94.2599 30.2501 94.8899 36.3101 93.9899C39.4501 93.5199 42.56 92.8099 45.66 91.9999C48.8 86.3699 52.74 78.0599 54.66 68.9599C56.76 58.9799 51.3501 51.8599 46.7401 47.7999L46.73 47.7899Z"
        fill="#FFA905" />
    <path
        d="M62.0499 64.7699C62.1299 64.6599 62.2299 64.5499 62.3599 64.4699C63.3399 63.8199 64.14 63.5799 65.28 63.9999C66.15 64.3299 66.83 64.9999 67.08 65.8999C67.31 66.7199 66.5999 68.3699 65.8499 68.7699C63.9699 69.7799 61.0299 66.2299 62.0499 64.7599V64.7699Z"
        fill="#E60024" />
    <path
        d="M52.4699 63.4C52.3799 63.24 52.3199 63.05 52.2899 62.83C52.1799 62.15 52.4699 61.46 52.9399 60.96C53.3999 60.47 54.0199 60.15 54.6799 60.05C54.7599 60.04 54.8499 60.03 54.9199 60.07C54.9899 60.1 55.0399 60.17 55.0799 60.24C55.9399 61.59 56.5399 62.85 54.7299 63.81C53.8999 64.25 52.9099 64.21 52.4799 63.41L52.4699 63.4Z"
        fill="#E60024" />
    <path
        d="M73.31 58.6799C73.42 58.9099 73.49 59.1399 73.5 59.3699C73.5 59.8199 72.81 61.4399 72.25 61.3999C71.07 61.3099 69.72 60.5899 68.91 59.6999C68.57 59.3299 69.2 57.9099 69.48 57.6299C70.09 57.0299 71.27 57.0399 71.99 57.3699C72.47 57.5899 73.03 58.1099 73.31 58.6799Z"
        fill="#E60024" />
    <path
        d="M63.56 78.7999C63.3 78.4599 63.28 77.9299 63.4 77.4499C63.5 77.0399 63.51 76.3499 63.81 76.0599C64.42 75.4499 65.7 75.6099 66.37 76.0099C67.34 76.5799 67.01 77.7699 66.24 78.4399C65.94 78.6999 65.56 78.8399 65.19 78.9699C64.93 79.0599 64.66 79.1599 64.39 79.1599C64 79.1599 63.73 79.0199 63.56 78.7899V78.7999Z"
        fill="#E60024" />
    <path
        d="M57.3899 74.5299C56.8399 74.7699 56.2199 74.9799 55.6599 74.7699C54.1999 74.2299 54.4199 72.8199 55.6099 72.1799C57.3199 71.2599 59.8999 73.4199 57.4399 74.4999C57.4199 74.4999 57.4099 74.5099 57.3899 74.5199V74.5299Z"
        fill="#E60024" />
    <path
        d="M57.0699 82.03C57.0699 82.03 57.0899 82.07 57.0999 82.09C57.4699 82.77 56.1499 84.79 55.5299 85.26C54.7199 85.86 53.4299 84.76 53.3799 83.94C53.3299 83.22 53.9799 82.23 54.4399 81.69C54.9399 81.1 56.6399 81.39 57.0799 82.03H57.0699Z"
        fill="#E60024" />
    <path
        d="M76.1099 69.3099C76.1099 69.3099 76.1099 69.3799 76.1199 69.4199C76.1599 69.7499 76.0599 70.1599 75.8299 70.4099C75.6499 70.5999 75.3998 70.6999 75.1598 70.7899C74.7998 70.9299 74.4299 71.0699 74.0399 71.0999C73.4399 71.1499 73.0299 70.8599 72.6399 70.4399C72.3999 70.1699 73.0299 68.4599 73.3699 68.4299C74.0699 68.3599 74.8499 68.5499 75.5099 68.7699C75.9799 68.9299 76.0599 68.8899 76.1099 69.3099Z"
        fill="#E60024" />
    <path
        d="M60.81 55.2C60.88 55.15 60.96 55.1099 61.05 55.0899C61.17 55.0499 61.3 55.0599 61.43 55.0599C62.05 55.0799 62.96 55 63.26 55.72C63.47 56.19 62.94 57.5899 62.49 57.8099C62.05 58.0299 61.55 58.1199 61.07 58.0199C60.32 57.8699 59.98 57.44 59.87 56.72C59.75 55.94 60.04 55.7099 60.69 55.2699C60.73 55.2399 60.77 55.22 60.81 55.19V55.2Z"
        fill="#E60024" />
    <path
        d="M62.6799 25.73C63.7099 24.69 64.7399 23.62 67.0599 24.96C60.5999 31.24 54.4299 37.24 48.1199 43.37C50.7699 45.02 61.7999 41.32 66.2599 37.37C72.8399 31.53 77.27 17.66 74.46 11.75C61.77 14.25 47.5199 30.75 46.9099 41.44C47.3799 41.07 47.74 40.84 48.03 40.54C52.92 35.61 57.7999 30.67 62.6799 25.74V25.73Z"
        fill="#00975C" />
    <path
        d="M35.39 40.9599C34.87 36.3499 33.87 31.7899 32.93 27.2399C31.49 20.2799 29.94 13.3399 28.44 6.37988C18.8 8.88988 18.16 10.0799 21.06 18.4699C23.79 26.3499 26.31 34.3199 29.24 42.1199C29.73 43.4199 31.9 44.0799 33.29 45.0399C34.03 43.6699 35.54 42.2199 35.39 40.9599Z"
        fill="#C09680" />
    <path
        d="M18.0901 60.66C17.2001 61.38 16.3401 62.2 15.8401 63.23C14.9401 65.08 15.3201 67.37 16.4301 69.11C17.5401 70.85 19.2501 72.1 21.0501 73.11C21.8501 73.55 22.6801 73.96 23.5801 74.14C24.7401 74.37 25.9501 74.18 27.1001 73.94C30.9701 73.13 34.8501 71.51 37.3901 68.48C40.1701 65.17 41.6701 57.13 36.0601 55.96C29.9301 54.68 22.8901 56.78 18.1001 60.67L18.0901 60.66Z"
        fill="white" />
</svg>